<?xml version="1.0" encoding="UTF-8" standalone="no"?>
<!-- Created with Inkscape (http://www.inkscape.org/) -->

<svg
   width="270.93332mm"
   height="270.93332mm"
   viewBox="0 0 270.93332 270.93332"
   version="1.1"
   id="svg1"
   xml:space="preserve"
   inkscape:export-filename="AAZUL.png"
   inkscape:export-xdpi="96"
   inkscape:export-ydpi="96"
   sodipodi:docname="AAZUL2.svg"
   inkscape:version="1.4 (86a8ad7, 2024-10-11)"
   xmlns:inkscape="http://www.inkscape.org/namespaces/inkscape"
   xmlns:sodipodi="http://sodipodi.sourceforge.net/DTD/sodipodi-0.dtd"
   xmlns="http://www.w3.org/2000/svg"
   xmlns:svg="http://www.w3.org/2000/svg"><sodipodi:namedview
     id="namedview1"
     pagecolor="#ffffff"
     bordercolor="#000000"
     borderopacity="0.25"
     inkscape:showpageshadow="2"
     inkscape:pageopacity="0.0"
     inkscape:pagecheckerboard="0"
     inkscape:deskcolor="#d1d1d1"
     inkscape:document-units="mm"
     inkscape:zoom="0.72604517"
     inkscape:cx="520.62876"
     inkscape:cy="558.5052"
     inkscape:window-width="1920"
     inkscape:window-height="1017"
     inkscape:window-x="-8"
     inkscape:window-y="-8"
     inkscape:window-maximized="1"
     inkscape:current-layer="layer1"
     showgrid="false" /><defs
     id="defs1" /><g
     inkscape:label="Capa 1"
     inkscape:groupmode="layer"
     id="layer1"
     transform="translate(30.427076,-12.96459)"><path
       id="path1"
       style="fill:#02385d;fill-opacity:1;stroke:#02385d;stroke-width:0;stroke-linecap:round;stroke-linejoin:round;stroke-dasharray:none;stroke-opacity:1"
       d="M -22.161104,26.323193 V 277.292 H 227.07283 V 26.323193 Z m 109.437525,15.360075 12.100364,0.05305 c 6.655265,0.02914 14.123785,0.174712 16.596615,0.323912 l 4.49574,0.271373 3.40989,7.998339 c 1.87536,4.398958 4.43471,10.429542 5.68754,13.401809 1.25283,2.97227 6.17274,14.645403 10.93301,25.940022 4.76026,11.294597 10.30454,24.426567 12.32089,29.182207 4.71743,11.12618 8.51426,20.32399 8.51426,20.62531 0,0.13024 -5.39031,0.36079 -11.97864,0.51265 -6.58835,0.15178 -14.50386,0.38775 -17.59029,0.52438 l -5.61166,0.24842 -1.26209,-3.17332 c -1.12592,-2.83104 -4.19976,-10.09366 -17.76906,-41.988226 -2.51113,-5.902385 -4.02009,-8.942711 -4.39898,-8.862955 -0.58558,0.123204 -3.940145,7.401353 -6.133702,13.307441 -0.662366,1.78336 -3.965233,9.66284 -7.339772,17.50963 -3.374529,7.84681 -7.455976,17.47676 -9.069928,21.40015 -1.613962,3.92341 -3.439913,8.27615 -4.057218,9.67299 -1.112267,2.51684 -1.385048,3.72933 -0.839357,3.72933 0.223128,0 30.658297,-4.97529 35.653747,-5.82838 1.47905,-0.25256 1.48012,0.0101 0.0112,2.16128 -3.49694,5.12149 -8.66917,13.84741 -8.28608,13.97873 0.48501,0.16627 5.60621,-1.08453 51.30914,-12.53106 16.96197,-4.24821 30.89572,-7.72443 30.96394,-7.72443 0.0682,0 -1.57178,1.49179 -3.64467,3.31462 -2.07289,1.82287 -5.80847,5.2812 -8.30136,7.68565 -2.49287,2.40447 -8.90321,8.38021 -14.2451,13.27888 -5.3419,4.89868 -12.83658,11.79921 -16.65468,15.33508 -3.81809,3.53586 -9.92478,9.15265 -13.57075,12.48159 -6.74789,6.16111 -10.7352,9.84935 -27.15681,25.11927 -5.088253,4.7314 -14.723462,13.56362 -21.411704,19.62705 -6.688228,6.06342 -14.879874,13.55335 -18.203508,16.6445 -10.738063,9.98697 -14.804841,13.68453 -14.804841,13.46149 l 5.13e-4,-9.8e-4 c 0,-0.12009 2.210982,-4.75479 4.913891,-10.29888 2.70291,-5.54408 5.73745,-12.02533 6.743362,-14.40314 1.005912,-2.37781 2.559802,-5.78241 3.452667,-7.56577 0.892855,-1.78335 3.901445,-8.20352 6.685804,-14.26694 2.784358,-6.06343 6.281091,-13.65074 7.770651,-16.86079 1.489571,-3.21003 3.230919,-7.08149 3.869798,-8.6028 0.638889,-1.52133 1.729896,-3.77421 2.424352,-5.00661 0.694447,-1.23238 1.262599,-2.49545 1.262599,-2.80657 0,-0.8108 -2.138265,-0.44895 -15.937056,2.69486 l -11.836532,2.69637 -1.357334,2.59437 C 45.922601,214.75885 42.449227,221.381 41.051316,224.00973 l -1.662413,3.1269 -17.369246,0.008 -17.3692552,0.008 1.1250797,-2.4857 c 0.619019,-1.36726 1.848374,-4.13984 2.7314718,-6.16097 0.8830978,-2.02114 3.5559177,-7.95485 5.9396637,-13.18604 7.969188,-17.48833 19.366483,-42.84139 22.155809,-49.28517 1.132225,-2.61558 3.548446,-8.06285 5.369224,-12.10515 1.820777,-4.04227 4.297435,-9.58692 5.503688,-12.32142 1.206243,-2.73448 3.836475,-8.6682 5.845431,-13.18604 2.008956,-4.51786 5.976169,-13.46708 8.81578,-19.887194 2.839601,-6.420101 5.912451,-13.326703 6.828921,-15.347834 0.91647,-2.021148 2.715909,-6.106453 3.998141,-9.078728 1.282232,-2.972269 5.026791,-11.483766 8.321734,-18.91444 z m 86.984779,130.991672 0.64938,1.25792 c 0.79492,1.5396 11.82957,27.18779 18.15309,42.19429 1.60317,3.80451 3.47568,8.03592 4.16112,9.40315 l 1.2458,2.48571 -4.6465,-0.0689 c -2.55566,-0.038 -5.22945,-0.12336 -5.94171,-0.18925 -0.71224,-0.0659 -6.86328,-0.35979 -13.66906,-0.65344 l -12.37386,-0.53407 -0.64225,-1.54662 c -0.35303,-0.85076 -1.83828,-4.17363 -3.30089,-7.38367 -1.4626,-3.21005 -3.40661,-7.68442 -4.32002,-9.94334 -3.15724,-7.80782 -4.75957,-11.99834 -4.75957,-12.4464 0,-0.52002 12.95126,-12.19074 20.38441,-18.36914 z" /><rect
       style="fill:none;fill-opacity:1;stroke:#02385d;stroke-width:10.4;stroke-linecap:round;stroke-linejoin:round;stroke-dasharray:none;stroke-opacity:1;paint-order:fill markers stroke"
       id="rect1"
       width="244.52394"
       height="246.71042"
       x="-18.765726"
       y="29.727777" /></g></svg>
