<?xml version="1.0" encoding="UTF-8" standalone="no"?>
<!-- Created with Inkscape (http://www.inkscape.org/) -->

<svg
   width="270.93332mm"
   height="270.93332mm"
   viewBox="0 0 270.93332 270.93332"
   version="1.1"
   id="svg1"
   xml:space="preserve"
   inkscape:export-filename="AAZUL.png"
   inkscape:export-xdpi="96"
   inkscape:export-ydpi="96"
   sodipodi:docname="AAZUL.svg"
   inkscape:version="1.4 (86a8ad7, 2024-10-11)"
   xmlns:inkscape="http://www.inkscape.org/namespaces/inkscape"
   xmlns:sodipodi="http://sodipodi.sourceforge.net/DTD/sodipodi-0.dtd"
   xmlns="http://www.w3.org/2000/svg"
   xmlns:svg="http://www.w3.org/2000/svg"><sodipodi:namedview
     id="namedview1"
     pagecolor="#ffffff"
     bordercolor="#000000"
     borderopacity="0.25"
     inkscape:showpageshadow="2"
     inkscape:pageopacity="0.0"
     inkscape:pagecheckerboard="0"
     inkscape:deskcolor="#d1d1d1"
     inkscape:document-units="mm"
     inkscape:zoom="0.72604517"
     inkscape:cx="498.59157"
     inkscape:cy="547.4866"
     inkscape:window-width="1920"
     inkscape:window-height="1017"
     inkscape:window-x="-8"
     inkscape:window-y="-8"
     inkscape:window-maximized="1"
     inkscape:current-layer="layer1"
     showgrid="false" /><defs
     id="defs1" /><g
     inkscape:label="Capa 1"
     inkscape:groupmode="layer"
     id="layer1"
     transform="translate(30.427076,-12.96459)"><path
       style="fill:#02385d;fill-opacity:1;stroke-width:1.65535"
       d="m 48.682058,267.80162 c 0,-0.12166 2.24381,-4.81662 4.986243,-10.43317 2.742431,-5.61653 5.821292,-12.1828 6.841912,-14.59168 1.020618,-2.40889 2.596877,-5.85799 3.502794,-7.66466 0.905918,-1.80665 3.958548,-8.31066 6.783615,-14.45332 2.825068,-6.14267 6.373054,-13.82922 7.884399,-17.08122 1.511345,-3.25198 3.27828,-7.17373 3.926499,-8.71492 0.64823,-1.54121 1.755096,-3.82368 2.459702,-5.07219 0.704606,-1.24848 1.281103,-2.52788 1.281103,-2.84306 0,-0.8214 -2.169645,-0.45513 -16.170188,2.72976 l -12.009392,2.73192 -1.377369,2.62787 c -9.144488,17.44674 -12.668419,24.15569 -14.086774,26.81878 l -1.687191,3.16784 -17.623168,0.008 -17.6231697,0.008 1.1419312,-2.51839 c 0.6280604,-1.38512 1.8750218,-4.19367 2.7710294,-6.24121 0.8960041,-2.04755 3.6079541,-8.05884 6.0265541,-13.35839 8.085717,-17.71687 19.649624,-43.40143 22.479738,-49.92942 1.148775,-2.64976 3.600192,-8.16831 5.447597,-12.26343 1.847402,-4.0951 4.360274,-9.71219 5.58416,-12.48242 1.223886,-2.77022 3.892974,-8.7815 5.931309,-13.35838 2.038333,-4.5769 6.063342,-13.64309 8.944463,-20.147096 2.881122,-6.504001 5.999211,-13.500732 6.929078,-15.548276 0.929865,-2.047561 2.755115,-6.186468 4.056096,-9.197586 1.300983,-3.011112 5.1007,-11.633841 8.443825,-19.161622 l 6.078395,-13.686871 12.277411,0.05367 c 6.75257,0.02952 14.33018,0.177334 16.83916,0.328484 l 4.56172,0.274817 3.4596,8.102627 c 1.90278,4.456445 4.49962,10.566268 5.77076,13.577378 1.27115,3.011112 6.26292,14.836576 11.09279,26.278798 4.82986,11.442201 10.45545,24.745867 12.50128,29.563657 4.78641,11.27158 8.63877,20.58929 8.63877,20.89455 0,0.13194 -5.46927,0.36577 -12.15393,0.51961 -6.68468,0.15377 -14.71612,0.39291 -17.84768,0.53132 l -5.69375,0.25164 -1.28059,-3.21491 c -1.14239,-2.86804 -4.26084,-10.22578 -18.02854,-42.537147 -2.54785,-5.97952 -4.07887,-9.05939 -4.4633,-8.978592 -0.59415,0.124814 -3.99793,7.498102 -6.22356,13.481373 -0.672052,1.80667 -4.023235,9.788866 -7.447113,17.738206 -3.423866,7.94935 -7.565036,17.70534 -9.202585,21.68 -1.637563,3.97469 -3.489829,8.38446 -4.116162,9.79955 -1.128524,2.54973 -1.405425,3.77784 -0.85176,3.77784 0.226386,0 31.10633,-5.04023 36.17482,-5.90447 1.50068,-0.25586 1.5021,0.0101 0.0117,2.18947 -3.54807,5.18842 -8.7963,14.0282 -8.40761,14.16124 0.4921,0.16844 5.6885,-1.09872 52.05968,-12.69484 17.20998,-4.30372 31.3475,-7.82495 31.41672,-7.82495 0.0692,0 -1.59495,1.51092 -3.69815,3.35758 -2.1032,1.84669 -5.89345,5.3506 -8.42279,7.78648 -2.52932,2.43589 -9.03333,8.48927 -14.45333,13.45196 -5.42,4.9627 -13.02413,11.95389 -16.89805,15.53597 -3.87392,3.58207 -10.07018,9.27214 -13.76946,12.64459 -6.84655,6.24162 -10.89218,9.97798 -27.5539,25.44746 -5.162655,4.79323 -14.938847,13.74079 -21.724872,19.88346 -6.786024,6.14266 -15.097329,13.73067 -18.469565,16.86222 C 52.807892,264.283 48.681999,268.02886 48.681999,267.80291 Z M 191.68251,225.65303 c -0.72266,-0.0668 -6.96372,-0.36475 -13.86901,-0.66224 l -12.5551,-0.5409 -0.65123,-1.56707 c -0.35819,-0.86188 -1.8654,-4.2278 -3.34939,-7.47979 -1.48399,-3.252 -3.45644,-7.7851 -4.38321,-10.07354 -3.2034,-7.90985 -4.82924,-12.15482 -4.82924,-12.60873 0,-0.52682 13.1407,-12.35046 20.68253,-18.60961 l 5.13425,-4.26102 0.65889,1.27417 c 0.80654,1.55972 12.0023,27.54319 18.41828,42.7458 1.62661,3.85422 3.52646,8.14095 4.22192,9.52605 l 1.26443,2.51839 -4.71459,-0.07 c -2.59302,-0.0385 -5.30586,-0.12464 -6.02853,-0.19139 z"
       id="path1" /><rect
       style="fill:none;stroke:#02385d;stroke-width:15.1092;stroke-linecap:round;stroke-linejoin:round;stroke-dasharray:none;stroke-opacity:1;paint-order:fill markers stroke"
       id="rect1"
       width="252.87769"
       height="254.24828"
       x="-21.432085"
       y="21.585846" /></g></svg>
